<svg width="32" height="32" viewBox="0 0 32 32" fill="none" xmlns="http://www.w3.org/2000/svg">
<rect width="32" height="32" fill="white"/>
<path fill-rule="evenodd" clip-rule="evenodd" d="M9.33329 12C9.06963 12.0001 8.8119 12.0783 8.59268 12.2248C8.37347 12.3713 8.20262 12.5795 8.10172 12.8231C8.00083 13.0667 7.97443 13.3348 8.02585 13.5934C8.07727 13.852 8.20421 14.0895 8.39063 14.276L15.0573 20.9427C15.3073 21.1926 15.6464 21.333 16 21.333C16.3535 21.333 16.6926 21.1926 16.9426 20.9427L23.6093 14.276C23.7957 14.0895 23.9226 13.852 23.9741 13.5934C24.0255 13.3348 23.9991 13.0667 23.8982 12.8231C23.7973 12.5795 23.6265 12.3713 23.4072 12.2248C23.188 12.0783 22.9303 12.0001 22.6666 12H9.33329Z" fill="#9C9C9C"/>
</svg>
