<svg width="13" height="13" viewBox="0 0 13 13" fill="none" xmlns="http://www.w3.org/2000/svg">
<g clip-path="url(#clip0_40_18)">
<path d="M11.75 1.62383L8.74738 1.62384V0.876465C8.74738 0.669277 8.57956 0.501465 8.37238 0.501465C8.16519 0.501465 7.99738 0.669277 7.99738 0.876465V1.62365H4.99738V0.876465C4.99738 0.669277 4.82956 0.501465 4.62238 0.501465C4.41519 0.501465 4.24738 0.669277 4.24738 0.876465V1.62365H1.25C0.835812 1.62365 0.5 1.95946 0.5 2.37365V11.7487C0.5 12.1628 0.835812 12.4987 1.25 12.4987H11.75C12.1642 12.4987 12.5 12.1628 12.5 11.7487V2.37365C12.5 1.95964 12.1642 1.62383 11.75 1.62383ZM11.75 11.7487H1.25V2.37365H4.24738V2.75146C4.24738 2.95864 4.41519 3.12646 4.62238 3.12646C4.82956 3.12646 4.99738 2.95864 4.99738 2.75146V2.37384H7.99738V2.75165C7.99738 2.95884 8.16519 3.12665 8.37238 3.12665C8.57956 3.12665 8.74738 2.95884 8.74738 2.75165V2.37384H11.75V11.7487ZM9.125 6.49883H9.875C10.082 6.49883 10.25 6.33083 10.25 6.12383V5.37383C10.25 5.16683 10.082 4.99883 9.875 4.99883H9.125C8.918 4.99883 8.75 5.16683 8.75 5.37383V6.12383C8.75 6.33083 8.918 6.49883 9.125 6.49883ZM9.125 9.49864H9.875C10.082 9.49864 10.25 9.33083 10.25 9.12364V8.37364C10.25 8.16664 10.082 7.99864 9.875 7.99864H9.125C8.918 7.99864 8.75 8.16664 8.75 8.37364V9.12364C8.75 9.33102 8.918 9.49864 9.125 9.49864ZM6.875 7.99864H6.125C5.918 7.99864 5.75 8.16664 5.75 8.37364V9.12364C5.75 9.33083 5.918 9.49864 6.125 9.49864H6.875C7.082 9.49864 7.25 9.33083 7.25 9.12364V8.37364C7.25 8.16683 7.082 7.99864 6.875 7.99864ZM6.875 4.99883H6.125C5.918 4.99883 5.75 5.16683 5.75 5.37383V6.12383C5.75 6.33083 5.918 6.49883 6.125 6.49883H6.875C7.082 6.49883 7.25 6.33083 7.25 6.12383V5.37383C7.25 5.16664 7.082 4.99883 6.875 4.99883ZM3.875 4.99883H3.125C2.918 4.99883 2.75 5.16683 2.75 5.37383V6.12383C2.75 6.33083 2.918 6.49883 3.125 6.49883H3.875C4.082 6.49883 4.25 6.33083 4.25 6.12383V5.37383C4.25 5.16664 4.082 4.99883 3.875 4.99883ZM3.875 7.99864H3.125C2.918 7.99864 2.75 8.16664 2.75 8.37364V9.12364C2.75 9.33083 2.918 9.49864 3.125 9.49864H3.875C4.082 9.49864 4.25 9.33083 4.25 9.12364V8.37364C4.25 8.16683 4.082 7.99864 3.875 7.99864Z" fill="#989898"/>
</g>
<defs>
<clipPath id="clip0_40_18">
<rect width="12" height="12" fill="white" transform="translate(0.5 0.5)"/>
</clipPath>
</defs>
</svg>
