<svg width="23" height="23" viewBox="0 0 23 23" fill="none" xmlns="http://www.w3.org/2000/svg">
<path d="M19.1187 20.125C17.1222 20.125 15.1497 19.6899 13.201 18.8197C11.2524 17.9496 9.47951 16.7156 7.88229 15.1177C6.28507 13.5198 5.05137 11.7469 4.18121 9.79896C3.31104 7.85099 2.87564 5.87842 2.875 3.88125C2.875 3.59375 2.97083 3.35417 3.1625 3.1625C3.35417 2.97083 3.59375 2.875 3.88125 2.875H7.7625C7.98611 2.875 8.18576 2.95103 8.36146 3.10308C8.53715 3.25514 8.64097 3.43467 8.67292 3.64167L9.29583 6.99583C9.32778 7.25139 9.31979 7.46701 9.27187 7.64271C9.22396 7.8184 9.13611 7.97014 9.00833 8.09792L6.68437 10.4458C7.00382 11.0368 7.383 11.6077 7.82192 12.1584C8.26083 12.7091 8.74415 13.2403 9.27187 13.7521C9.76701 14.2472 10.2861 14.7066 10.8292 15.1302C11.3722 15.5538 11.9472 15.9409 12.5542 16.2917L14.8062 14.0396C14.95 13.8958 15.1378 13.7882 15.3698 13.7166C15.6017 13.6451 15.8291 13.6249 16.0521 13.6562L19.3583 14.3271C19.5819 14.391 19.7656 14.5069 19.9094 14.675C20.0531 14.843 20.125 15.0305 20.125 15.2375V19.1187C20.125 19.4062 20.0292 19.6458 19.8375 19.8375C19.6458 20.0292 19.4062 20.125 19.1187 20.125Z" fill="white"/>
</svg>
