<svg width="159" height="40" viewBox="0 0 159 40" fill="none" xmlns="http://www.w3.org/2000/svg">
<path d="M17.2159 17.3559L8.21588 19.3077L2 12.6056L4.78412 3.95177L13.7841 2L20 8.70207L17.2159 17.3559Z" stroke="white" stroke-width="3" stroke-linecap="round" stroke-linejoin="round"/>
<path d="M20.7845 35.9702L12.1307 38L6.15387 31.0298L8.83091 22.0298L17.4848 20L23.4616 26.9702L20.7845 35.9702Z" stroke="white" stroke-width="3" stroke-linecap="round" stroke-linejoin="round"/>
<path d="M35.2159 22.8945L26.2159 24.8463L20 18.1442L22.7841 9.49035L31.7841 7.53857L38 14.2406L35.2159 22.8945Z" stroke="white" stroke-width="3" stroke-linecap="round" stroke-linejoin="round"/>
<path d="M61.846 29H52.434C50.016 29 49.08 27.752 49.08 25.75V14.778C49.08 12.776 50.016 11.502 52.434 11.502H61.69V14.908H52.876V18.548H61.144V21.954H52.876V25.594H61.846V29ZM78.0966 34.928H74.4046V28.142C73.4426 28.896 72.1946 29.364 70.8946 29.364C66.8906 29.364 64.1346 26.556 64.1346 22.526C64.1346 18.834 67.1506 15.766 71.1026 15.766C75.1326 15.766 78.0966 18.652 78.0966 22.526V34.928ZM71.1026 25.88C73.0006 25.88 74.4046 24.372 74.4046 22.552C74.4046 20.732 73.0006 19.25 71.1026 19.25C69.2046 19.25 67.8266 20.732 67.8266 22.552C67.8266 24.372 69.2046 25.88 71.1026 25.88ZM87.531 25.776C89.429 25.776 90.391 24.086 90.391 22.084V16.13H94.083V22.526C94.083 26.296 91.847 29.338 87.531 29.338C83.241 29.338 81.005 26.296 81.005 22.526V16.13H84.697V22.11C84.697 24.086 85.633 25.776 87.531 25.776ZM99.3967 14.206C98.1487 14.206 97.1087 13.192 97.1087 11.918C97.1087 10.67 98.1487 9.63 99.3967 9.63C100.645 9.63 101.659 10.67 101.659 11.918C101.659 13.192 100.645 14.206 99.3967 14.206ZM97.5507 16.13H101.243V29H97.5507V16.13ZM105.397 29V9.994H112.963C116.707 9.994 118.995 11.944 118.995 15.116C118.995 17.222 118.059 18.73 116.265 19.484C118.267 20.134 119.281 21.642 119.281 23.852C119.281 27.102 117.019 29 113.093 29H105.397ZM112.677 12.932H108.725V18.106H112.755C114.575 18.106 115.589 17.144 115.589 15.454C115.589 13.816 114.549 12.932 112.677 12.932ZM112.963 20.914H108.725V26.062H112.963C114.835 26.062 115.875 25.152 115.875 23.436C115.875 21.824 114.809 20.914 112.963 20.914ZM122.307 10.202H125.999V29H122.307V10.202ZM135.925 29.338C131.973 29.338 128.957 26.27 128.957 22.526C128.957 18.808 131.999 15.74 135.925 15.74C139.903 15.74 142.919 18.834 142.919 22.526C142.919 26.27 139.877 29.338 135.925 29.338ZM135.925 25.88C137.823 25.88 139.227 24.372 139.227 22.552C139.227 20.732 137.823 19.224 135.925 19.224C134.027 19.224 132.649 20.732 132.649 22.552C132.649 24.372 134.027 25.88 135.925 25.88ZM151.64 29.338C147.766 29.364 144.724 26.27 144.724 22.552C144.724 18.808 147.766 15.74 151.64 15.766C154.11 15.792 156.398 16.91 157.568 19.406L154.526 21.07C153.954 19.952 152.914 19.25 151.64 19.25C149.794 19.25 148.416 20.732 148.416 22.552C148.416 24.372 149.794 25.854 151.64 25.854C152.914 25.854 153.954 25.152 154.526 24.034L157.568 25.698C156.398 28.194 154.11 29.312 151.64 29.338Z" fill="white"/>
</svg>
