<svg width="13" height="13" viewBox="0 0 13 13" fill="none" xmlns="http://www.w3.org/2000/svg">
<g clip-path="url(#clip0_40_25)">
<path d="M6.5 6.75C6.03587 6.75 5.59075 6.93437 5.26256 7.26256C4.93437 7.59075 4.75 8.03587 4.75 8.5C4.75 8.96413 4.93437 9.40925 5.26256 9.73744C5.59075 10.0656 6.03587 10.25 6.5 10.25C6.96413 10.25 7.40925 10.0656 7.73744 9.73744C8.06563 9.40925 8.25 8.96413 8.25 8.5C8.25 8.03587 8.06563 7.59075 7.73744 7.26256C7.40925 6.93437 6.96413 6.75 6.5 6.75ZM5.75 8.5C5.75 8.30109 5.82902 8.11032 5.96967 7.96967C6.11032 7.82902 6.30109 7.75 6.5 7.75C6.69891 7.75 6.88968 7.82902 7.03033 7.96967C7.17098 8.11032 7.25 8.30109 7.25 8.5C7.25 8.69891 7.17098 8.88968 7.03033 9.03033C6.88968 9.17098 6.69891 9.25 6.5 9.25C6.30109 9.25 6.11032 9.17098 5.96967 9.03033C5.82902 8.88968 5.75 8.69891 5.75 8.5Z" fill="#989898"/>
<path d="M9.263 3.05797L7.6735 0.829468L1.829 5.49847L1.505 5.49497V5.49997H1.25V11.5H11.75V5.49997H11.269L10.312 2.70047L9.263 3.05797ZM10.2125 5.49997H5.1985L8.933 4.22697L9.694 3.98347L10.2125 5.49997ZM8.275 3.39497L4.42 4.70897L7.473 2.26997L8.275 3.39497ZM2.25 9.58447V7.41447C2.46109 7.33997 2.65283 7.21917 2.81115 7.06093C2.96948 6.90269 3.09039 6.71101 3.165 6.49997H9.835C9.90955 6.71111 10.0304 6.90288 10.1888 7.06121C10.3471 7.21954 10.5389 7.34042 10.75 7.41497V9.58497C10.5389 9.65952 10.3471 9.78039 10.1888 9.93873C10.0304 10.0971 9.90955 10.2888 9.835 10.5H3.166C3.09109 10.2888 2.96998 10.097 2.81151 9.93865C2.65304 9.78026 2.4612 9.65926 2.25 9.58447Z" fill="#989898"/>
</g>
<defs>
<clipPath id="clip0_40_25">
<rect width="12" height="12" fill="white" transform="translate(0.5 0.5)"/>
</clipPath>
</defs>
</svg>
