<svg width="26" height="22" viewBox="0 0 26 22" fill="none" xmlns="http://www.w3.org/2000/svg">
<path d="M23.5 4H3.5C3.23478 4 2.98043 3.89464 2.79289 3.70711C2.60536 3.51957 2.5 3.26522 2.5 3C2.5 2.73478 2.60536 2.48043 2.79289 2.29289C2.98043 2.10536 3.23478 2 3.5 2H20.5C20.7652 2 21.0196 1.89464 21.2071 1.70711C21.3946 1.51957 21.5 1.26522 21.5 1C21.5 0.734784 21.3946 0.48043 21.2071 0.292893C21.0196 0.105357 20.7652 0 20.5 0H3.5C2.70435 0 1.94129 0.316071 1.37868 0.87868C0.816071 1.44129 0.5 2.20435 0.5 3V19C0.5 19.7956 0.816071 20.5587 1.37868 21.1213C1.94129 21.6839 2.70435 22 3.5 22H23.5C24.0304 22 24.5391 21.7893 24.9142 21.4142C25.2893 21.0391 25.5 20.5304 25.5 20V6C25.5 5.46957 25.2893 4.96086 24.9142 4.58579C24.5391 4.21071 24.0304 4 23.5 4ZM23.5 20H3.5C3.23478 20 2.98043 19.8946 2.79289 19.7071C2.60536 19.5196 2.5 19.2652 2.5 19V5.82875C2.82107 5.94267 3.15932 6.0006 3.5 6H23.5V20ZM17.5 12.5C17.5 12.2033 17.588 11.9133 17.7528 11.6666C17.9176 11.42 18.1519 11.2277 18.426 11.1142C18.7001 11.0006 19.0017 10.9709 19.2926 11.0288C19.5836 11.0867 19.8509 11.2296 20.0607 11.4393C20.2704 11.6491 20.4133 11.9164 20.4712 12.2074C20.5291 12.4983 20.4993 12.7999 20.3858 13.074C20.2723 13.3481 20.08 13.5824 19.8334 13.7472C19.5867 13.912 19.2967 14 19 14C18.6022 14 18.2206 13.842 17.9393 13.5607C17.658 13.2794 17.5 12.8978 17.5 12.5Z" fill="white"/>
</svg>
